<svg width="64" height="64" xmlns="http://www.w3.org/2000/svg" xmlns:xlink="http://www.w3.org/1999/xlink">
  <defs/>
  <g>
  <path
     stroke="none"
     fill="#ef4e29"
     d="m 32,20 q 0,5 -3.525,8.475001 -3.475,3.525 -8.475,3.525 -4.975,0 -8.5,-3.525 Q 8,25 8,20 8,15.025 11.5,11.5 15.025,8 20,8 25,8 28.475,11.5 32,15.025 32,20 m -9.5,-2 q 0,0.425 -0.275,0.7 H 22.2 Q 21.9,19 21.5,19 h -3 v -2 h 3 q 0.4,0 0.675,0.275 l 0.05,0.05 Q 22.5,17.6 22.5,18 m 2,4 q 0,-1.15 -0.75,-2 0.75,-0.85 0.75,-2 0,-1.225 -0.875,-2.1 L 23.6,15.875 Q 22.725,15 21.5,15 h -5 v 10 h 5 q 1.225,0 2.1,-0.875 L 23.625,24.1 Q 24.5,23.225 24.5,22 m -2,0 q 0,0.4 -0.275,0.675 l -0.05,0.05 Q 21.9,23 21.5,23 h -3 v -2 h 3 q 0.4,0 0.7,0.3 h 0.025 Q 22.5,21.575 22.5,22"
     id="path242"
     style="stroke-width:0.5" />
     <path
     stroke="none"
     fill="#ff6666"
     d="m 46.850002,41.175 q 1.15,1.15 1.15,2.825 0,1.674999 -1.15,2.849999 -1.175,1.15 -2.85,1.15 -1.65,0 -2.800001,-1.15 l -0.025,-0.025 q -1.175,-1.175 -1.175,-2.824999 0,-1.65 1.175,-2.825 h 0.025 Q 42.350002,40 44.000002,40 q 1.675,0 2.85,1.175 m 3.15,2.825 q 0,-2.5 -1.75,-4.25 -1.75,-1.75 -4.25,-1.75 -2.475001,0 -4.225001,1.75 -1.775,1.75 -1.775,4.25 0,2.499999 1.775,4.249999 1.75,1.75 4.225001,1.75 2.5,0 4.25,-1.75 1.75,-1.75 1.75,-4.249999 m 6,0 q 0,4.999999 -3.525,8.474999 -3.475,3.525 -8.475,3.525 -4.975001,0 -8.500002,-3.525 Q 32,48.999999 32,44 q 0,-4.975 3.5,-8.5 3.525001,-3.5 8.500002,-3.5 5,0 8.475,3.5 3.525,3.525 3.525,8.5"
     id="path254"
     style="stroke-width:0.5" />
  </g>
</svg>
