<svg width="64" height="64" xmlns="http://www.w3.org/2000/svg" xmlns:xlink="http://www.w3.org/1999/xlink">
  <defs/>
  <g>
    <path
         stroke="none"
         fill="#7db700"
         d="m 32,20 q 0,5 -3.525,8.475 Q 25,32 20,32 15.025,32 11.5,28.475 8,25 8,20 8,15.025 11.5,11.5 15.025,8 20,8 25,8 28.475,11.5 32,15.025 32,20 m -9,5 h 2 L 21,15 h -2 l -4,10 h 2 l 0.8,-2 h 4.4 L 23,25 M 20,17.5 21.4,21 H 18.6 L 20,17.5"
         id="path4"
         style="stroke-width:0.500001" />
    <path
       stroke="none"
       fill="#7c66e8"
       d="m 40,38 -1.4,1.4 4.6,4.6 -4.6,4.6 1.400001,1.4 4.6,-4.6 4.6,4.6 1.4,-1.4 -4.6,-4.6 4.6,-4.6 -1.4,-1.4 -4.6,4.6 -4.6,-4.6 M 56,44 q 0,5 -3.525,8.475 Q 48.999999,56 43.999999,56 39.024999,56 35.499998,52.475 32,49 32,44 q 0,-4.975 3.499998,-8.5 3.525001,-3.5 8.500001,-3.5 5,0 8.475001,3.5 Q 56,39.025 56,44"
       id="path14"
       style="stroke-width:0.5" />
  </g>
</svg>
