<svg width="64" height="64" xmlns="http://www.w3.org/2000/svg" xmlns:xlink="http://www.w3.org/1999/xlink">
  <defs/>
  <g>
    <path
     stroke="none"
     fill="#40e2a0"
     d="m 56,44 q 0,5 -3.525,8.475 Q 49,56 44,56 39.025,56 35.5,52.475 32,49 32,44 32,39.025 35.5,35.5 39.025,32 44,32 49,32 52.475,35.5 56,39.025 56,44 M 51,49 44,37 37,49 H 51 M 44,40.975 47.525,47 H 40.5 L 44,40.975"
     id="path9"
     style="stroke-width:0.5" /><path
     stroke="none"
     fill="#feb504"
     d="m 32,20 q 0,5 -3.525,8.475 Q 25,32 20,32 15.025,32 11.5,28.475 8,25 8,20 8,15.025 11.5,11.5 15.025,8 20,8 25,8 28.475,11.5 32,15.025 32,20 M 15.5,16.5 19,20.45 V 25 h 2 V 20.45 L 24.5,16.5 V 16 l -1.125,-1 h -0.55 L 20,18.275 17.2,15 H 16.625 L 15.5,16 v 0.5"
     id="path179"
     style="stroke-width:0.5" />
  </g>     
</svg>
