<svg width="64" height="64" xmlns="http://www.w3.org/2000/svg" xmlns:xlink="http://www.w3.org/1999/xlink">
  <defs/>
  <g>
    <path
     stroke="none"
     fill="#ff69f8"
     d="m 56,43.999999 q 0,4.999999 -3.525,8.474999 -3.475,3.525 -8.475,3.525 -4.975,0 -8.5,-3.525 Q 32,48.999998 32,43.999999 32,39.024999 35.5,35.5 39.025,32 44,32 49,32 52.475,35.5 56,39.024999 56,43.999999 m -18,-6 V 49.999998 H 50 V 37.999999 H 38 m 2,9.999999 v -7.999999 h 8 v 7.999999 h -8"
     id="path287"
     style="stroke-width:0.5" />
    <path
     stroke="none"
     fill="#009feb"
     d="m 32,19.999999 q 0,5 -3.525,8.475 Q 25,31.999998 19.999999,31.999998 15.025,31.999998 11.5,28.474999 8,24.999999 8,19.999999 8,15.025 11.5,11.5 15.025,8 19.999999,8 25,8 28.475,11.5 32,15.025 32,19.999999 M 15.5,16.5 l 2.999999,3.499999 -2.999999,3.5 v 0.5 l 1.124999,1 h 0.575 l 2.8,-3.25 2.825002,3.25 h 0.55 l 1.124999,-1 v -0.5 l -2.999999,-3.5 L 24.5,16.5 V 16 l -1.124999,-1 h -0.55 l -2.825002,3.275 -2.8,-3.275 h -0.575 L 15.5,16 v 0.5"
     id="path299"
     style="stroke-width:0.5" />
  </g>
</svg>
