<svg width="64" height="64" xmlns="http://www.w3.org/2000/svg" xmlns:xlink="http://www.w3.org/1999/xlink">
  <defs/>
  <g>
    <path stroke="none" fill="#FFFFFF" d="M 16 8 C 10.666672 8 8 10.666672 8 16 L 8 48 C 8 53.333328 10.666672 56 16 56 L 48 56 C 53.333328 56 56 53.333328 56 48 L 56 16 C 56 10.666672 53.333328 8 48 8 L 16 8 z M 31 22 L 33 22 C 34.333331 22 35 22.666669 35 24 L 35 26 C 35 27.333331 34.333331 28 33 28 L 31 28 C 29.666669 28 29 27.333331 29 26 L 29 24 C 29 22.666669 29.666669 22 31 22 z M 24 30 L 40 30 L 40 34 L 24 34 L 24 30 z M 31 36 L 33 36 C 34.333331 36 35 36.666669 35 38 L 35 40 C 35 41.333331 34.333331 42 33 42 L 31 42 C 29.666669 42 29 41.333331 29 40 L 29 38 C 29 36.666669 29.666669 36 31 36 z " />
  </g>
</svg>
